<svg xmlns="http://www.w3.org/2000/svg" width="1600" height="520" viewBox="0 0 1600 520"><defs><linearGradient id="bg" x1="0" y1="0" x2="1" y2="1"><stop offset="0" stop-color="#020617"/><stop offset=".58" stop-color="#0b1535"/><stop offset="1" stop-color="#11154b"/></linearGradient><linearGradient id="name" x1="0" x2="1"><stop offset="0" stop-color="#ffffff"/><stop offset=".4" stop-color="#67e8f9"/><stop offset=".72" stop-color="#8b5cf6"/><stop offset="1" stop-color="#ffffff"/></linearGradient><linearGradient id="spec" x1="0" x2="1"><stop offset="0" stop-color="#8b5cf6"/><stop offset=".25" stop-color="#3b82f6"/><stop offset=".48" stop-color="#22d3ee"/><stop offset=".68" stop-color="#34d399"/><stop offset=".84" stop-color="#facc15"/><stop offset="1" stop-color="#fb7185"/></linearGradient><radialGradient id="earth" cx=".35" cy=".3"><stop offset="0" stop-color="#dbeafe"/><stop offset=".22" stop-color="#60a5fa"/><stop offset=".55" stop-color="#1e3a8a"/><stop offset="1" stop-color="#020617"/></radialGradient><filter id="glow"><feGaussianBlur stdDeviation="8" result="b"/><feMerge><feMergeNode in="b"/><feMergeNode in="SourceGraphic"/></feMerge></filter><pattern id="grid" width="40" height="40" patternUnits="userSpaceOnUse"><path d="M40 0H0V40" fill="none" stroke="#38bdf8" stroke-opacity=".035"/></pattern></defs><rect width="1600" height="520" rx="28" fill="url(#bg)"/><rect width="1600" height="520" rx="28" fill="url(#grid)"/><circle cx="240" cy="80" r="2" fill="#dbeafe" opacity=".6"/><circle cx="400" cy="120" r="1.5" fill="#dbeafe" opacity=".4"/><circle cx="540" cy="60" r="1.5" fill="#dbeafe" opacity=".7"/><circle cx="870" cy="85" r="2" fill="#dbeafe" opacity=".55"/><circle cx="1050" cy="120" r="1.5" fill="#dbeafe" opacity=".5"/><circle cx="1180" cy="50" r="2" fill="#dbeafe" opacity=".7"/><path d="M700 258 C760 210 820 304 880 252 S1000 170 1080 252 S1200 312 1260 246" fill="none" stroke="url(#spec)" stroke-width="5" filter="url(#glow)"/><g stroke="url(#spec)" opacity=".7"><path d="M746 188V332"/><path d="M800 210V305"/><path d="M854 160V355"/><path d="M910 192V320"/><path d="M970 145V374"/><path d="M1035 183V330"/><path d="M1100 160V350"/><path d="M1170 204V306"/></g><circle cx="1360" cy="255" r="180" fill="url(#earth)"/><ellipse cx="1360" cy="255" rx="278" ry="88" fill="none" stroke="#67e8f9" stroke-opacity=".3" stroke-width="2" transform="rotate(-15 1360 255)"/><ellipse cx="1360" cy="255" rx="318" ry="108" fill="none" stroke="#8b5cf6" stroke-opacity=".18" transform="rotate(-15 1360 255)"/><circle cx="1236" cy="325" r="46" fill="#020617" stroke="#93c5fd" stroke-opacity=".5"/><rect x="42" y="28" width="212" height="46" rx="14" fill="#071124" stroke="#22d3ee" stroke-opacity=".45"/><text x="64" y="58" font-family="Inter,Segoe UI,Arial" font-size="22" font-weight="700" fill="#dbeafe">&gt;_ README.md</text><rect x="1360" y="28" width="194" height="46" rx="14" fill="#071124" stroke="#8b5cf6" stroke-opacity=".55"/><text x="1421" y="58" font-family="Inter,Segoe UI,Arial" font-size="22" font-weight="700" fill="#f8fafc">◉ Earth</text><text x="56" y="154" font-family="Inter,Segoe UI,Arial" font-size="76" font-weight="800" fill="url(#name)">Biswajit Jana</text><text x="60" y="208" font-family="Inter,Segoe UI,Arial" font-size="26" font-weight="700" fill="#dbeafe">ASTROPHYSICS RESEARCHER  ·  INSTRUMENTATION ENGINEER</text><rect x="60" y="252" width="6" height="96" rx="3" fill="url(#spec)"/><text x="88" y="283" font-family="Inter,Segoe UI,Arial" font-size="22" fill="#f1f5f9">Building precision spectroscopy, active optics and scientific</text><text x="88" y="317" font-family="Inter,Segoe UI,Arial" font-size="22" fill="#f1f5f9">computing tools for astrophysical instrumentation.</text><rect x="60" y="388" width="238" height="50" rx="25" fill="#071124" stroke="#22d3ee" stroke-opacity=".8"/><circle cx="88" cy="413" r="7" fill="#34d399"/><text x="108" y="420" font-family="Inter,Segoe UI,Arial" font-size="18" font-weight="700" fill="#e0f2fe">Open to collaborate</text><rect x="320" y="388" width="310" height="50" rx="25" fill="#071124" stroke="#8b5cf6" stroke-opacity=".8"/><text x="352" y="420" font-family="Inter,Segoe UI,Arial" font-size="18" font-weight="700" fill="#ede9fe">Precision instrumentation</text></svg>