<svg xmlns="http://www.w3.org/2000/svg" width="760" height="430" viewBox="0 0 760 430"><defs><linearGradient id="bg" x1="0" y1="0" x2="1" y2="1"><stop offset="0" stop-color="#020617"/><stop offset=".62" stop-color="#0b1535"/><stop offset="1" stop-color="#f59e0b" stop-opacity=".22"/></linearGradient></defs><rect width="760" height="430" rx="26" fill="url(#bg)" stroke="#f59e0b" stroke-opacity=".85" stroke-width="2"/><rect x="1" y="1" width="758" height="78" rx="25" fill="#f59e0b" fill-opacity=".07"/><rect x="46" y="42" width="6" height="78" rx="3" fill="#f59e0b"/><text x="72" y="72" font-family="Inter,Segoe UI,Arial" font-size="34" font-weight="800" fill="#f8fafc">ExoLight Transit Lab</text><text x="72" y="112" font-family="Inter,Segoe UI,Arial" font-size="19" font-weight="700" fill="#f59e0b">Transit Modelling Toolkit</text><text x="48" y="182" font-family="Inter,Segoe UI,Arial" font-size="19" fill="#cbd5e1">Simulate, analyse and visualise exoplanet transits</text><text x="48" y="213" font-family="Inter,Segoe UI,Arial" font-size="19" fill="#cbd5e1">with modular scientific workflows.</text><circle cx="610" cy="210" r="68" fill="#f59e0b" fill-opacity=".28" stroke="#fbbf24"/><circle cx="578" cy="210" r="26" fill="#020617"/><path d="M430 320 C490 312 525 314 560 324 C595 335 642 334 688 321 C712 314 735 314 750 319" fill="none" stroke="#f59e0b" stroke-width="5"/><rect x="46" y="352" width="210" height="50" rx="20" fill="#f59e0b" fill-opacity=".12" stroke="#f59e0b"/><text x="75" y="384" font-family="Inter,Segoe UI,Arial" font-size="18" font-weight="700" fill="#f8fafc">Explore project  →</text></svg>