<svg xmlns="http://www.w3.org/2000/svg" width="760" height="430" viewBox="0 0 760 430"><defs><linearGradient id="bg" x1="0" y1="0" x2="1" y2="1"><stop offset="0" stop-color="#020617"/><stop offset=".62" stop-color="#0b1535"/><stop offset="1" stop-color="#2dd4bf" stop-opacity=".22"/></linearGradient></defs><rect width="760" height="430" rx="26" fill="url(#bg)" stroke="#2dd4bf" stroke-opacity=".85" stroke-width="2"/><rect x="1" y="1" width="758" height="78" rx="25" fill="#2dd4bf" fill-opacity=".07"/><rect x="46" y="42" width="6" height="78" rx="3" fill="#2dd4bf"/><text x="72" y="72" font-family="Inter,Segoe UI,Arial" font-size="34" font-weight="800" fill="#f8fafc">EXOhSPEC</text><text x="72" y="112" font-family="Inter,Segoe UI,Arial" font-size="19" font-weight="700" fill="#2dd4bf">Spectrograph Stabilisation &amp; Control</text><text x="48" y="182" font-family="Inter,Segoe UI,Arial" font-size="19" fill="#cbd5e1">Closed-loop feedback for thermal and optical stability.</text><text x="48" y="213" font-family="Inter,Segoe UI,Arial" font-size="19" fill="#cbd5e1">Precision instrumentation, active optics and control.</text><path d="M430 260 L458 254 L478 192 L500 267 L526 258 L548 124 L566 270 L600 255 L624 202 L646 264 L676 256 L704 154 L726 268" fill="none" stroke="#2dd4bf" stroke-width="5"/><path d="M430 300H730" stroke="#334155"/><rect x="46" y="352" width="210" height="50" rx="20" fill="#2dd4bf" fill-opacity=".12" stroke="#2dd4bf"/><text x="75" y="384" font-family="Inter,Segoe UI,Arial" font-size="18" font-weight="700" fill="#f8fafc">Explore project  →</text></svg>