<svg xmlns="http://www.w3.org/2000/svg" width="760" height="430" viewBox="0 0 760 430"><defs><linearGradient id="bg" x1="0" y1="0" x2="1" y2="1"><stop offset="0" stop-color="#020617"/><stop offset=".62" stop-color="#0b1535"/><stop offset="1" stop-color="#a855f7" stop-opacity=".22"/></linearGradient></defs><rect width="760" height="430" rx="26" fill="url(#bg)" stroke="#a855f7" stroke-opacity=".85" stroke-width="2"/><rect x="1" y="1" width="758" height="78" rx="25" fill="#a855f7" fill-opacity=".07"/><rect x="46" y="42" width="6" height="78" rx="3" fill="#a855f7"/><text x="72" y="72" font-family="Inter,Segoe UI,Arial" font-size="34" font-weight="800" fill="#f8fafc">NASADIYA Lightcone</text><text x="72" y="112" font-family="Inter,Segoe UI,Arial" font-size="19" font-weight="700" fill="#a855f7">Cosmic Structure Explorer</text><text x="48" y="182" font-family="Inter,Segoe UI,Arial" font-size="19" fill="#cbd5e1">Explore the observable universe through interactive</text><text x="48" y="213" font-family="Inter,Segoe UI,Arial" font-size="19" fill="#cbd5e1">3D lightcone visualisation and survey data.</text><path d="M448 330 L592 122 L736 330 Z" fill="#a855f7" fill-opacity=".08" stroke="#a855f7" stroke-opacity=".8"/><circle cx="592" cy="130" r="5" fill="#e0f2fe"/><circle cx="544" cy="194" r="4" fill="#e0f2fe"/><circle cx="638" cy="214" r="4" fill="#e0f2fe"/><circle cx="500" cy="288" r="4" fill="#e0f2fe"/><circle cx="690" cy="288" r="5" fill="#e0f2fe"/><path d="M448 330 Q592 252 736 330" fill="none" stroke="#a78bfa" stroke-opacity=".8"/><rect x="46" y="352" width="210" height="50" rx="20" fill="#a855f7" fill-opacity=".12" stroke="#a855f7"/><text x="75" y="384" font-family="Inter,Segoe UI,Arial" font-size="18" font-weight="700" fill="#f8fafc">Explore project  →</text></svg>