<svg xmlns="http://www.w3.org/2000/svg" width="1600" height="420" viewBox="0 0 1600 420"><defs><linearGradient id="bg" x1="0" y1="0" x2="1" y2="1"><stop offset="0" stop-color="#020617"/><stop offset="1" stop-color="#0b1535"/></linearGradient></defs><rect width="1600" height="420" rx="28" fill="url(#bg)" stroke="#1e3a5f"/><text x="52" y="62" font-family="Inter,Segoe UI,Arial" font-size="31" font-weight="800" fill="#f8fafc">RESEARCH UNIVERSE</text><text x="52" y="98" font-family="Inter,Segoe UI,Arial" font-size="18" fill="#94a3b8">Core domains across optics, control and computation</text><path d="M720 72 C820 32 900 112 1000 70 S1200 40 1320 78" fill="none" stroke="#22d3ee" stroke-width="3" opacity=".85"/><rect x="50" y="145" width="225" height="220" rx="22" fill="#061226" stroke="#c084fc" stroke-opacity=".9" stroke-width="2"/><rect x="68" y="163" width="66" height="66" rx="18" fill="#c084fc" fill-opacity=".12" stroke="#c084fc"/><text x="101" y="207" text-anchor="middle" font-family="Segoe UI Symbol,Arial" font-size="35" font-weight="700" fill="#c084fc">λ</text><text x="162" y="288" text-anchor="middle" font-family="Inter,Segoe UI,Arial" font-size="22" font-weight="700" fill="#f8fafc">Precision</text><text x="162" y="318" text-anchor="middle" font-family="Inter,Segoe UI,Arial" font-size="22" font-weight="700" fill="#f8fafc">Spectroscopy</text><rect x="305" y="145" width="225" height="220" rx="22" fill="#061226" stroke="#60a5fa" stroke-opacity=".9" stroke-width="2"/><rect x="323" y="163" width="66" height="66" rx="18" fill="#60a5fa" fill-opacity=".12" stroke="#60a5fa"/><text x="356" y="207" text-anchor="middle" font-family="Segoe UI Symbol,Arial" font-size="35" font-weight="700" fill="#60a5fa">◎</text><text x="417" y="288" text-anchor="middle" font-family="Inter,Segoe UI,Arial" font-size="22" font-weight="700" fill="#f8fafc">Active</text><text x="417" y="318" text-anchor="middle" font-family="Inter,Segoe UI,Arial" font-size="22" font-weight="700" fill="#f8fafc">Optics</text><rect x="560" y="145" width="225" height="220" rx="22" fill="#061226" stroke="#2dd4bf" stroke-opacity=".9" stroke-width="2"/><rect x="578" y="163" width="66" height="66" rx="18" fill="#2dd4bf" fill-opacity=".12" stroke="#2dd4bf"/><text x="611" y="207" text-anchor="middle" font-family="Segoe UI Symbol,Arial" font-size="35" font-weight="700" fill="#2dd4bf">⊕</text><text x="672" y="288" text-anchor="middle" font-family="Inter,Segoe UI,Arial" font-size="22" font-weight="700" fill="#f8fafc">Feedback</text><text x="672" y="318" text-anchor="middle" font-family="Inter,Segoe UI,Arial" font-size="22" font-weight="700" fill="#f8fafc">Control</text><rect x="815" y="145" width="225" height="220" rx="22" fill="#061226" stroke="#f59e0b" stroke-opacity=".9" stroke-width="2"/><rect x="833" y="163" width="66" height="66" rx="18" fill="#f59e0b" fill-opacity=".12" stroke="#f59e0b"/><text x="866" y="207" text-anchor="middle" font-family="Segoe UI Symbol,Arial" font-size="35" font-weight="700" fill="#f59e0b">◉</text><text x="927" y="303" text-anchor="middle" font-family="Inter,Segoe UI,Arial" font-size="22" font-weight="700" fill="#f8fafc">Exoplanets</text><rect x="1070" y="145" width="225" height="220" rx="22" fill="#061226" stroke="#a78bfa" stroke-opacity=".9" stroke-width="2"/><rect x="1088" y="163" width="66" height="66" rx="18" fill="#a78bfa" fill-opacity=".12" stroke="#a78bfa"/><text x="1121" y="207" text-anchor="middle" font-family="Segoe UI Symbol,Arial" font-size="35" font-weight="700" fill="#a78bfa">◇</text><text x="1182" y="288" text-anchor="middle" font-family="Inter,Segoe UI,Arial" font-size="22" font-weight="700" fill="#f8fafc">Scientific</text><text x="1182" y="318" text-anchor="middle" font-family="Inter,Segoe UI,Arial" font-size="22" font-weight="700" fill="#f8fafc">Computing</text><rect x="1325" y="145" width="225" height="220" rx="22" fill="#061226" stroke="#60a5fa" stroke-opacity=".9" stroke-width="2"/><rect x="1343" y="163" width="66" height="66" rx="18" fill="#60a5fa" fill-opacity=".12" stroke="#60a5fa"/><text x="1376" y="207" text-anchor="middle" font-family="Segoe UI Symbol,Arial" font-size="35" font-weight="700" fill="#60a5fa">⌁</text><text x="1437" y="303" text-anchor="middle" font-family="Inter,Segoe UI,Arial" font-size="22" font-weight="700" fill="#f8fafc">Instrumentation</text></svg>