<svg xmlns="http://www.w3.org/2000/svg" width="1600" height="430" viewBox="0 0 1600 430"><defs><linearGradient id="bg" x1="0" y1="0" x2="1" y2="1"><stop offset="0" stop-color="#020617"/><stop offset="1" stop-color="#0b1535"/></linearGradient></defs><rect width="1600" height="430" rx="28" fill="url(#bg)" stroke="#1e3a5f"/><text x="52" y="62" font-family="Inter,Segoe UI,Arial" font-size="34" font-weight="800" fill="#f8fafc">TECH STACK</text><text x="52" y="98" font-family="Inter,Segoe UI,Arial" font-size="18" fill="#94a3b8">Languages, scientific computing, instrumentation and interfaces</text><rect x="50" y="138" width="355" height="68" rx="18" fill="#061226" stroke="#3776ab" stroke-opacity=".85"/><rect x="66" y="148" width="54" height="48" rx="14" fill="#3776ab" fill-opacity=".15" stroke="#3776ab"/><text x="93" y="180" text-anchor="middle" font-family="Inter,Segoe UI,Arial" font-size="16" font-weight="800" fill="#f8fafc">PY</text><text x="142" y="180" font-family="Inter,Segoe UI,Arial" font-size="21" font-weight="700" fill="#f8fafc">Python</text><rect x="440" y="138" width="355" height="68" rx="18" fill="#061226" stroke="#00599c" stroke-opacity=".85"/><rect x="456" y="148" width="54" height="48" rx="14" fill="#00599c" fill-opacity=".15" stroke="#00599c"/><text x="483" y="180" text-anchor="middle" font-family="Inter,Segoe UI,Arial" font-size="16" font-weight="800" fill="#f8fafc">C++</text><text x="532" y="180" font-family="Inter,Segoe UI,Arial" font-size="21" font-weight="700" fill="#f8fafc">C++</text><rect x="830" y="138" width="355" height="68" rx="18" fill="#061226" stroke="#f7df1e" stroke-opacity=".85"/><rect x="846" y="148" width="54" height="48" rx="14" fill="#f7df1e" fill-opacity=".15" stroke="#f7df1e"/><text x="873" y="180" text-anchor="middle" font-family="Inter,Segoe UI,Arial" font-size="16" font-weight="800" fill="#f8fafc">JS</text><text x="922" y="180" font-family="Inter,Segoe UI,Arial" font-size="21" font-weight="700" fill="#f8fafc">JavaScript</text><rect x="1220" y="138" width="355" height="68" rx="18" fill="#061226" stroke="#3178c6" stroke-opacity=".85"/><rect x="1236" y="148" width="54" height="48" rx="14" fill="#3178c6" fill-opacity=".15" stroke="#3178c6"/><text x="1263" y="180" text-anchor="middle" font-family="Inter,Segoe UI,Arial" font-size="16" font-weight="800" fill="#f8fafc">TS</text><text x="1312" y="180" font-family="Inter,Segoe UI,Arial" font-size="21" font-weight="700" fill="#f8fafc">TypeScript</text><rect x="50" y="226" width="355" height="68" rx="18" fill="#061226" stroke="#e16737" stroke-opacity=".85"/><rect x="66" y="236" width="54" height="48" rx="14" fill="#e16737" fill-opacity=".15" stroke="#e16737"/><text x="93" y="268" text-anchor="middle" font-family="Inter,Segoe UI,Arial" font-size="16" font-weight="800" fill="#f8fafc">M</text><text x="142" y="268" font-family="Inter,Segoe UI,Arial" font-size="21" font-weight="700" fill="#f8fafc">MATLAB</text><rect x="440" y="226" width="355" height="68" rx="18" fill="#061226" stroke="#4d77cf" stroke-opacity=".85"/><rect x="456" y="236" width="54" height="48" rx="14" fill="#4d77cf" fill-opacity=".15" stroke="#4d77cf"/><text x="483" y="268" text-anchor="middle" font-family="Inter,Segoe UI,Arial" font-size="16" font-weight="800" fill="#f8fafc">NP</text><text x="532" y="268" font-family="Inter,Segoe UI,Arial" font-size="21" font-weight="700" fill="#f8fafc">NumPy</text><rect x="830" y="226" width="355" height="68" rx="18" fill="#061226" stroke="#8b5cf6" stroke-opacity=".85"/><rect x="846" y="236" width="54" height="48" rx="14" fill="#8b5cf6" fill-opacity=".15" stroke="#8b5cf6"/><text x="873" y="268" text-anchor="middle" font-family="Inter,Segoe UI,Arial" font-size="16" font-weight="800" fill="#f8fafc">PD</text><text x="922" y="268" font-family="Inter,Segoe UI,Arial" font-size="21" font-weight="700" fill="#f8fafc">Pandas</text><rect x="1220" y="226" width="355" height="68" rx="18" fill="#061226" stroke="#00979d" stroke-opacity=".85"/><rect x="1236" y="236" width="54" height="48" rx="14" fill="#00979d" fill-opacity=".15" stroke="#00979d"/><text x="1263" y="268" text-anchor="middle" font-family="Inter,Segoe UI,Arial" font-size="16" font-weight="800" fill="#f8fafc">∞</text><text x="1312" y="268" font-family="Inter,Segoe UI,Arial" font-size="21" font-weight="700" fill="#f8fafc">Arduino</text><rect x="50" y="314" width="355" height="68" rx="18" fill="#061226" stroke="#c51a4a" stroke-opacity=".85"/><rect x="66" y="324" width="54" height="48" rx="14" fill="#c51a4a" fill-opacity=".15" stroke="#c51a4a"/><text x="93" y="356" text-anchor="middle" font-family="Inter,Segoe UI,Arial" font-size="16" font-weight="800" fill="#f8fafc">RP</text><text x="142" y="356" font-family="Inter,Segoe UI,Arial" font-size="21" font-weight="700" fill="#f8fafc">Raspberry Pi</text><rect x="440" y="314" width="355" height="68" rx="18" fill="#061226" stroke="#f46800" stroke-opacity=".85"/><rect x="456" y="324" width="54" height="48" rx="14" fill="#f46800" fill-opacity=".15" stroke="#f46800"/><text x="483" y="356" text-anchor="middle" font-family="Inter,Segoe UI,Arial" font-size="16" font-weight="800" fill="#f8fafc">G</text><text x="532" y="356" font-family="Inter,Segoe UI,Arial" font-size="21" font-weight="700" fill="#f8fafc">Grafana</text><rect x="830" y="314" width="355" height="68" rx="18" fill="#061226" stroke="#22adf6" stroke-opacity=".85"/><rect x="846" y="324" width="54" height="48" rx="14" fill="#22adf6" fill-opacity=".15" stroke="#22adf6"/><text x="873" y="356" text-anchor="middle" font-family="Inter,Segoe UI,Arial" font-size="16" font-weight="800" fill="#f8fafc">ID</text><text x="922" y="356" font-family="Inter,Segoe UI,Arial" font-size="21" font-weight="700" fill="#f8fafc">InfluxDB</text><rect x="1220" y="314" width="355" height="68" rx="18" fill="#061226" stroke="#38bdf8" stroke-opacity=".85"/><rect x="1236" y="324" width="54" height="48" rx="14" fill="#38bdf8" fill-opacity=".15" stroke="#38bdf8"/><text x="1263" y="356" text-anchor="middle" font-family="Inter,Segoe UI,Arial" font-size="16" font-weight="800" fill="#f8fafc">TW</text><text x="1312" y="356" font-family="Inter,Segoe UI,Arial" font-size="21" font-weight="700" fill="#f8fafc">Tailwind</text></svg>